<svg xmlns="http://www.w3.org/2000/svg" viewBox="0 0 510 510"><g fill="#090509"><path d="M431 153.875h-37c-27 0-91 62-142 111-73 70-141 137-195 137H23c-13 0-23-10-23-23s10-24 23-24h34c36 0 106-68 163-123 69-66 128-124 174-124h37l-38-38c-9-9-9-23 0-32s24-9 33 0l77 77c4 4 7 10 7 16s-3 13-7 17l-77 77c-5 5-10 7-16 7s-12-2-17-7c-9-9-9-24 0-33l38-38z"/><path d="M426 284.875l77 77c4 4 7 11 7 17s-3 12-7 16l-77 77c-5 5-10 7-16 7s-12-2-17-7c-9-9-9-24 0-33l38-37h-37c-36 0-70-27-122-75-9-9-10-24-1-33s23-10 32-1c32 30 69 62 91 62h37l-38-37c-9-9-9-24 0-33s24-9 33 0zm-403-131c-13 0-23-10-23-23s10-23 23-23h34c40 0 81 30 130 74 9 9 10 24 1 33-5 5-11 7-17 7s-12-2-16-6c-32-29-71-62-98-62H23z"/></g></svg>