<svg height="32" viewBox="0 0 32 32" width="32" xmlns="http://www.w3.org/2000/svg"><g clip-rule="evenodd" fill="#121313" fill-rule="evenodd"><path d="M31.532 24.15l-4.815-4.872a1.001 1.001 0 0 0-1.422 0 1.012 1.012 0 0 0 0 1.428l3.231 3.269h-6.038l-3.772-4.717a1.01 1.01 0 0 0-1.427 1.427l3.994 4.994c.198.198.457.296.716.295h6.558l-3.262 3.3a1.012 1.012 0 0 0 0 1.428c.393.395 1.03.395 1.423 0l4.909-4.967a.98.98 0 0 0 .373-.76.983.983 0 0 0-.468-.825zM1 7.975h7.52l3.762 4.704a1.01 1.01 0 0 0 1.427-1.427L9.715 6.258a.997.997 0 0 0-.777-.283H1a1 1 0 0 0 0 2z"/><path d="M22.52 7.975h6.078l-3.262 3.3a1.012 1.012 0 0 0 0 1.428c.393.395 1.03.395 1.423 0l4.94-4.999a1.015 1.015 0 0 0-.043-1.472l-4.897-4.956a1.003 1.003 0 0 0-1.423 0 1.012 1.012 0 0 0 0 1.428l3.231 3.269H22c-.005 0-.009.003-.014.003a.945.945 0 0 0-.778.289L8.443 23.975H1a1 1 0 0 0 0 2h8c.276 0 .58-.124.775-.32L22.52 7.975z"/></g></svg>